<mxfile host="65bd71144e">
    <diagram id="DhcozfXZdTsYqylqrNuK" name="ページ1">
        <mxGraphModel dx="704" dy="787" grid="1" gridSize="10" guides="1" tooltips="1" connect="1" arrows="1" fold="1" page="1" pageScale="1" pageWidth="827" pageHeight="1169" math="0" shadow="0">
            <root>
                <mxCell id="0"/>
                <mxCell id="1" parent="0"/>
                <mxCell id="13" style="edgeStyle=none;html=1;entryX=0;entryY=0.5;entryDx=0;entryDy=0;fontSize=32;" parent="1" source="2" target="12" edge="1">
                    <mxGeometry relative="1" as="geometry"/>
                </mxCell>
                <mxCell id="17" value="ArrayBuffer" style="edgeLabel;html=1;align=center;verticalAlign=middle;resizable=0;points=[];fontSize=20;" parent="13" vertex="1" connectable="0">
                    <mxGeometry x="-0.123" y="2" relative="1" as="geometry">
                        <mxPoint as="offset"/>
                    </mxGeometry>
                </mxCell>
                <mxCell id="2" value="&lt;font style=&quot;font-size: 32px;&quot;&gt;Input&lt;/font&gt;" style="rounded=0;whiteSpace=wrap;html=1;" parent="1" vertex="1">
                    <mxGeometry x="350" y="100" width="110" height="60" as="geometry"/>
                </mxCell>
                <mxCell id="3" value="View" style="text;html=1;strokeColor=none;fillColor=none;align=center;verticalAlign=middle;whiteSpace=wrap;rounded=0;fontSize=32;" parent="1" vertex="1">
                    <mxGeometry x="105" y="30" width="60" height="30" as="geometry"/>
                </mxCell>
                <mxCell id="4" value="Component" style="text;html=1;strokeColor=none;fillColor=none;align=center;verticalAlign=middle;whiteSpace=wrap;rounded=0;fontSize=32;" parent="1" vertex="1">
                    <mxGeometry x="300" y="30" width="210" height="30" as="geometry"/>
                </mxCell>
                <mxCell id="6" value="Model" style="text;html=1;strokeColor=none;fillColor=none;align=center;verticalAlign=middle;whiteSpace=wrap;rounded=0;fontSize=32;" parent="1" vertex="1">
                    <mxGeometry x="640" y="30" width="120" height="30" as="geometry"/>
                </mxCell>
                <mxCell id="54" value="results" style="edgeStyle=none;html=1;exitX=-0.013;exitY=0.819;exitDx=0;exitDy=0;exitPerimeter=0;entryX=1;entryY=0.5;entryDx=0;entryDy=0;fontSize=20;" parent="1" source="7" target="52" edge="1">
                    <mxGeometry relative="1" as="geometry"/>
                </mxCell>
                <mxCell id="56" value="Image&lt;br&gt;Structure" style="edgeStyle=none;html=1;exitX=-0.008;exitY=0.376;exitDx=0;exitDy=0;exitPerimeter=0;fontSize=20;entryX=1;entryY=0.5;entryDx=0;entryDy=0;" parent="1" source="7" target="23" edge="1">
                    <mxGeometry relative="1" as="geometry"/>
                </mxCell>
                <mxCell id="59" value="DICOM" style="edgeStyle=none;html=1;exitX=0;exitY=0;exitDx=0;exitDy=798.75;exitPerimeter=0;entryX=1;entryY=0.25;entryDx=0;entryDy=0;fontSize=20;" parent="1" source="7" target="52" edge="1">
                    <mxGeometry relative="1" as="geometry"/>
                </mxCell>
                <mxCell id="61" value="Image&lt;br&gt;Structure" style="edgeStyle=none;html=1;exitX=-0.011;exitY=0.151;exitDx=0;exitDy=0;exitPerimeter=0;entryX=1;entryY=0.067;entryDx=0;entryDy=0;entryPerimeter=0;fontSize=20;" parent="1" source="7" target="23" edge="1">
                    <mxGeometry relative="1" as="geometry"/>
                </mxCell>
                <mxCell id="7" value="DataBase" style="shape=cylinder3;whiteSpace=wrap;html=1;boundedLbl=1;backgroundOutline=1;size=15;fontSize=32;fillColor=#fa6800;fontColor=#000000;strokeColor=#C73500;" parent="1" vertex="1">
                    <mxGeometry x="950" y="85" width="300" height="1075" as="geometry"/>
                </mxCell>
                <mxCell id="10" style="edgeStyle=none;html=1;fontSize=32;" parent="1" source="8" target="2" edge="1">
                    <mxGeometry relative="1" as="geometry"/>
                </mxCell>
                <mxCell id="16" value="files" style="edgeLabel;html=1;align=center;verticalAlign=middle;resizable=0;points=[];fontSize=20;" parent="10" vertex="1" connectable="0">
                    <mxGeometry x="0.2395" y="-1" relative="1" as="geometry">
                        <mxPoint x="-18" y="-1" as="offset"/>
                    </mxGeometry>
                </mxCell>
                <mxCell id="8" value="UserForm" style="rounded=0;whiteSpace=wrap;html=1;fontSize=32;" parent="1" vertex="1">
                    <mxGeometry x="57" y="100" width="156" height="60" as="geometry"/>
                </mxCell>
                <mxCell id="14" style="edgeStyle=none;html=1;fontSize=32;exitX=1;exitY=0.25;exitDx=0;exitDy=0;entryX=0;entryY=0;entryDx=0;entryDy=15;entryPerimeter=0;" parent="1" source="12" target="7" edge="1">
                    <mxGeometry relative="1" as="geometry">
                        <mxPoint x="950" y="131" as="targetPoint"/>
                    </mxGeometry>
                </mxCell>
                <mxCell id="18" value="DICOM" style="edgeLabel;html=1;align=center;verticalAlign=middle;resizable=0;points=[];fontSize=20;" parent="14" vertex="1" connectable="0">
                    <mxGeometry x="-0.2" y="-1" relative="1" as="geometry">
                        <mxPoint x="11" y="-3" as="offset"/>
                    </mxGeometry>
                </mxCell>
                <mxCell id="57" value="Image&lt;br&gt;Structure" style="edgeStyle=none;html=1;entryX=-0.004;entryY=0.075;entryDx=0;entryDy=0;entryPerimeter=0;fontSize=20;" parent="1" source="12" target="7" edge="1">
                    <mxGeometry relative="1" as="geometry"/>
                </mxCell>
                <mxCell id="12" value="DICOM&lt;br&gt;Processor" style="shape=process;whiteSpace=wrap;html=1;backgroundOutline=1;fontSize=32;" parent="1" vertex="1">
                    <mxGeometry x="585" y="87.5" width="230" height="85" as="geometry"/>
                </mxCell>
                <mxCell id="28" style="edgeStyle=none;html=1;entryX=1.004;entryY=0.071;entryDx=0;entryDy=0;fontSize=32;exitX=0.004;exitY=0.033;exitDx=0;exitDy=0;exitPerimeter=0;entryPerimeter=0;" parent="1" source="23" target="27" edge="1">
                    <mxGeometry relative="1" as="geometry"/>
                </mxCell>
                <mxCell id="29" value="&lt;font style=&quot;font-size: 20px;&quot;&gt;ImageData&lt;/font&gt;" style="edgeLabel;html=1;align=center;verticalAlign=middle;resizable=0;points=[];fontSize=32;" parent="28" vertex="1" connectable="0">
                    <mxGeometry x="-0.0558" y="-3" relative="1" as="geometry">
                        <mxPoint x="-1" as="offset"/>
                    </mxGeometry>
                </mxCell>
                <mxCell id="46" value="&lt;span style=&quot;font-size: 20px;&quot;&gt;image&lt;br&gt;Data&lt;/span&gt;" style="edgeStyle=none;html=1;entryX=-0.008;entryY=0.435;entryDx=0;entryDy=0;entryPerimeter=0;fontSize=3;exitX=1.015;exitY=0.609;exitDx=0;exitDy=0;exitPerimeter=0;" parent="1" source="23" target="7" edge="1">
                    <mxGeometry relative="1" as="geometry"/>
                </mxCell>
                <mxCell id="47" value="results" style="edgeStyle=none;html=1;exitX=1;exitY=0.75;exitDx=0;exitDy=0;fontSize=20;entryX=0.002;entryY=0.509;entryDx=0;entryDy=0;entryPerimeter=0;" parent="1" source="23" target="7" edge="1">
                    <mxGeometry relative="1" as="geometry">
                        <mxPoint x="960" y="630" as="targetPoint"/>
                    </mxGeometry>
                </mxCell>
                <mxCell id="48" style="edgeStyle=none;html=1;exitX=-0.006;exitY=0.83;exitDx=0;exitDy=0;entryX=1.001;entryY=0.169;entryDx=0;entryDy=0;fontSize=20;exitPerimeter=0;entryPerimeter=0;" parent="1" source="23" target="44" edge="1">
                    <mxGeometry relative="1" as="geometry"/>
                </mxCell>
                <mxCell id="49" value="result" style="edgeLabel;html=1;align=center;verticalAlign=middle;resizable=0;points=[];fontSize=20;" parent="48" vertex="1" connectable="0">
                    <mxGeometry x="-0.1219" y="7" relative="1" as="geometry">
                        <mxPoint x="-22" as="offset"/>
                    </mxGeometry>
                </mxCell>
                <mxCell id="23" value="Image&lt;br style=&quot;font-size: 32px;&quot;&gt;Processor" style="shape=process;whiteSpace=wrap;html=1;backgroundOutline=1;fontSize=32;" parent="1" vertex="1">
                    <mxGeometry x="585" y="210" width="230" height="560" as="geometry"/>
                </mxCell>
                <mxCell id="35" style="edgeStyle=none;html=1;entryX=0;entryY=0.25;entryDx=0;entryDy=0;fontSize=20;" parent="1" target="30" edge="1">
                    <mxGeometry relative="1" as="geometry">
                        <mxPoint x="210" y="320" as="sourcePoint"/>
                    </mxGeometry>
                </mxCell>
                <mxCell id="39" value="user&lt;br&gt;Pram" style="edgeLabel;html=1;align=center;verticalAlign=middle;resizable=0;points=[];fontSize=20;" parent="35" vertex="1" connectable="0">
                    <mxGeometry x="0.1474" y="-5" relative="1" as="geometry">
                        <mxPoint x="-13" y="-5" as="offset"/>
                    </mxGeometry>
                </mxCell>
                <mxCell id="38" style="edgeStyle=none;html=1;entryX=0;entryY=0.5;entryDx=0;entryDy=0;fontSize=32;exitX=1;exitY=0.75;exitDx=0;exitDy=0;" parent="1" source="27" target="37" edge="1">
                    <mxGeometry relative="1" as="geometry">
                        <mxPoint x="210" y="455" as="sourcePoint"/>
                    </mxGeometry>
                </mxCell>
                <mxCell id="40" value="param" style="edgeLabel;html=1;align=center;verticalAlign=middle;resizable=0;points=[];fontSize=20;" parent="38" vertex="1" connectable="0">
                    <mxGeometry x="-0.1777" y="-4" relative="1" as="geometry">
                        <mxPoint x="2" y="-3" as="offset"/>
                    </mxGeometry>
                </mxCell>
                <mxCell id="27" value="Preview" style="rounded=0;whiteSpace=wrap;html=1;fontSize=32;" parent="1" vertex="1">
                    <mxGeometry x="57" y="250" width="150" height="260" as="geometry"/>
                </mxCell>
                <mxCell id="36" value="param" style="edgeStyle=none;html=1;fontSize=20;" parent="1" source="30" edge="1">
                    <mxGeometry relative="1" as="geometry">
                        <mxPoint x="580" y="340" as="targetPoint"/>
                    </mxGeometry>
                </mxCell>
                <mxCell id="41" value="param" style="edgeStyle=none;html=1;exitX=0;exitY=0.75;exitDx=0;exitDy=0;fontSize=20;" parent="1" source="30" edge="1">
                    <mxGeometry relative="1" as="geometry">
                        <mxPoint x="210" y="360" as="targetPoint"/>
                    </mxGeometry>
                </mxCell>
                <mxCell id="30" value="Parameter&lt;br style=&quot;font-size: 32px;&quot;&gt;Controller" style="rounded=0;whiteSpace=wrap;html=1;fontSize=32;" parent="1" vertex="1">
                    <mxGeometry x="320" y="300" width="170" height="80" as="geometry"/>
                </mxCell>
                <mxCell id="42" style="edgeStyle=none;html=1;entryX=-0.001;entryY=0.42;entryDx=0;entryDy=0;entryPerimeter=0;fontSize=20;" parent="1" source="37" target="23" edge="1">
                    <mxGeometry relative="1" as="geometry"/>
                </mxCell>
                <mxCell id="43" value="param" style="edgeLabel;html=1;align=center;verticalAlign=middle;resizable=0;points=[];fontSize=20;" parent="42" vertex="1" connectable="0">
                    <mxGeometry x="0.361" y="-5" relative="1" as="geometry">
                        <mxPoint x="-22" y="-3" as="offset"/>
                    </mxGeometry>
                </mxCell>
                <mxCell id="37" value="Runner" style="rounded=0;whiteSpace=wrap;html=1;fontSize=32;" parent="1" vertex="1">
                    <mxGeometry x="330" y="410" width="150" height="70" as="geometry"/>
                </mxCell>
                <mxCell id="51" value="param" style="edgeStyle=none;html=1;exitX=1;exitY=0.75;exitDx=0;exitDy=0;entryX=0;entryY=0.5;entryDx=0;entryDy=0;fontSize=20;" parent="1" source="44" target="50" edge="1">
                    <mxGeometry relative="1" as="geometry"/>
                </mxCell>
                <mxCell id="44" value="Result&lt;br&gt;Preview" style="rounded=0;whiteSpace=wrap;html=1;fontSize=32;" parent="1" vertex="1">
                    <mxGeometry x="57" y="650" width="153" height="360" as="geometry"/>
                </mxCell>
                <mxCell id="53" value="&lt;font style=&quot;font-size: 20px;&quot;&gt;param&lt;/font&gt;" style="edgeStyle=none;html=1;entryX=0;entryY=0.5;entryDx=0;entryDy=0;fontSize=33;" parent="1" source="50" target="52" edge="1">
                    <mxGeometry relative="1" as="geometry"/>
                </mxCell>
                <mxCell id="50" value="Save" style="rounded=0;whiteSpace=wrap;html=1;fontSize=32;" parent="1" vertex="1">
                    <mxGeometry x="330" y="930" width="145" height="70" as="geometry"/>
                </mxCell>
                <mxCell id="52" value="&lt;font style=&quot;font-size: 32px;&quot;&gt;Exporter&lt;/font&gt;" style="shape=process;whiteSpace=wrap;html=1;backgroundOutline=1;fontSize=20;" parent="1" vertex="1">
                    <mxGeometry x="585" y="850" width="225" height="230" as="geometry"/>
                </mxCell>
            </root>
        </mxGraphModel>
    </diagram>
</mxfile>